<?xml version="1.0" encoding="iso-8859-1"?>
<!-- Generator: Adobe Illustrator 19.0.0, SVG Export Plug-In . SVG Version: 6.00 Build 0)  -->
<svg version="1.1" id="Capa_1" xmlns="http://www.w3.org/2000/svg" xmlns:xlink="http://www.w3.org/1999/xlink" x="0px" y="0px"
	 viewBox="0 0 512 512" style="enable-background:new 0 0 512 512;" xml:space="preserve">
<path style="fill:#2D69AD;" d="M428.153,512H83.846c-23.923,0-43.386-19.463-43.386-43.386V123.755
	c0-8.441,6.843-15.284,15.284-15.284h400.511c8.441,0,15.284,6.843,15.284,15.284v344.859C471.539,492.536,452.076,512,428.153,512z
	"/>
<path style="fill:#1B3359;" d="M456.255,108.471H255.996V512h172.157c23.923,0,43.386-19.463,43.386-43.386V123.755
	C471.539,115.313,464.696,108.471,456.255,108.471z"/>
<path style="fill:#E0F4FF;" d="M456.255,139.039H55.744c-8.441,0-15.284-6.843-15.284-15.284V43.386C40.46,19.463,59.923,0,83.846,0
	h344.307c23.923,0,43.386,19.463,43.386,43.386v80.369C471.539,132.196,464.696,139.039,456.255,139.039z"/>
<path style="fill:#B7E3FF;" d="M428.153,0H255.996v139.039h200.259c8.441,0,15.284-6.843,15.284-15.284V43.386
	C471.539,19.463,452.076,0,428.153,0z"/>
<path style="fill:#E0F4FF;" d="M255.999,441.989c-72.647,0-131.751-59.102-131.751-131.75c0-4.764,2.221-9.255,6.007-12.146
	c69.038-52.733,110.655-19.445,130.655-3.446c1.537,1.229,2.991,2.394,4.371,3.449c1.598,1.22,3.209,2.507,4.913,3.87
	c19.141,15.298,42.962,34.337,92.994-3.874c4.62-3.528,10.843-4.131,16.053-1.554c5.211,2.577,8.509,7.888,8.509,13.701
	C387.749,382.887,328.646,441.989,255.999,441.989z"/>
<path style="fill:#4FD9E0;" d="M310.979,350.98c-28.422,0-47.968-15.624-59.868-25.134c-1.542-1.232-3.001-2.4-4.387-3.458
	c-1.606-1.228-3.21-2.511-4.908-3.869c-19.139-15.31-42.956-34.358-93.005,3.867c-4.62,3.529-10.841,4.131-16.053,1.554
	c-5.211-2.577-8.509-7.888-8.509-13.701c0-72.647,59.103-131.751,131.751-131.751s131.75,59.103,131.75,131.751
	c0,4.764-2.221,9.255-6.008,12.147C353.791,343.733,330.326,350.98,310.979,350.98z"/>
<g>
	<path style="fill:#1B3359;" d="M404.099,84.803h-22.552c-8.441,0-15.284-6.843-15.284-15.284s6.843-15.284,15.284-15.284h22.552
		c8.441,0,15.284,6.843,15.284,15.284S412.54,84.803,404.099,84.803z"/>
	<path style="fill:#1B3359;" d="M336.281,84.803h-22.552c-8.441,0-15.284-6.843-15.284-15.284s6.843-15.284,15.284-15.284h22.552
		c8.441,0,15.284,6.843,15.284,15.284S344.722,84.803,336.281,84.803z"/>
</g>
<path style="fill:#2D69AD;" d="M182.419,84.803H107.9c-8.441,0-15.284-6.843-15.284-15.284s6.843-15.284,15.284-15.284h74.519
	c8.441,0,15.284,6.843,15.284,15.284S190.86,84.803,182.419,84.803z"/>
<path style="fill:#B7E3FF;" d="M379.241,296.537c-5.21-2.577-11.433-1.975-16.053,1.554c-50.032,38.211-73.853,19.171-92.994,3.874
	c-1.705-1.362-3.316-2.65-4.913-3.87c-1.381-1.056-2.835-2.22-4.371-3.449c-1.513-1.211-3.152-2.521-4.914-3.884v151.227
	c0.001,0,0.002,0,0.003,0c72.647,0,131.751-59.102,131.751-131.751C387.749,304.425,384.452,299.115,379.241,296.537z"/>
<path style="fill:#16A9C7;" d="M255.999,178.488c-0.001,0-0.002,0-0.003,0v151.215c12.102,9.355,30.155,21.277,54.983,21.277
	c19.348,0,42.812-7.246,70.764-28.595c3.786-2.892,6.008-7.383,6.008-12.147C387.749,237.591,328.646,178.488,255.999,178.488z"/>
<g>
</g>
<g>
</g>
<g>
</g>
<g>
</g>
<g>
</g>
<g>
</g>
<g>
</g>
<g>
</g>
<g>
</g>
<g>
</g>
<g>
</g>
<g>
</g>
<g>
</g>
<g>
</g>
<g>
</g>
</svg>
